<svg id="Layer_1" xmlns="http://www.w3.org/2000/svg" xmlns:xlink="http://www.w3.org/1999/xlink" viewBox="0 0 449 287">
  <style>
    .st0{fill:url(#SVGID_1_);} .st1{clip-path:url(#SVGID_2_);} .st2{fill:url(#SVGID_3_);} .st3{fill:url(#SVGID_4_);} .st4{fill:url(#SVGID_5_);} .st5{clip-path:url(#SVGID_6_);} .st6{fill:url(#SVGID_7_);} .st7{fill:url(#SVGID_8_);}
  </style>
  <linearGradient id="SVGID_1_" gradientUnits="userSpaceOnUse" x1="-.349" y1="96.942" x2="251.505" y2="96.942">
    <stop offset="0" stop-color="#15CEFF"/>
    <stop offset="1" stop-color="#0056E9"/>
  </linearGradient>
  <path class="st0" d="M92.8 81.4c40 0 82.6 25.9 127.7 62.1h31c0-9.4-4.3-18.3-11.6-24.2-27.1-21.7-49.6-36.9-71-48-27.3-14.1-52.2-20.9-76.2-20.9-51.3 0-93.1 41.8-93.1 93.1h31c.1-34.3 27.9-62.1 62.2-62.1z"/>
  <defs>
    <path id="SVGID_12_" d="M92.8 81.4c40 0 82.6 25.9 127.7 62.1h31c0-9.4-4.3-18.3-11.6-24.2-27.1-21.7-49.6-36.9-71-48-27.3-14.1-52.2-20.9-76.2-20.9-51.3 0-93.1 41.8-93.1 93.1h31c.1-34.3 27.9-62.1 62.2-62.1z"/>
  </defs>
  <clipPath id="SVGID_2_">
    <use xlink:href="#SVGID_12_" overflow="visible"/>
  </clipPath>
  <g class="st1">
    <linearGradient id="SVGID_3_" gradientUnits="userSpaceOnUse" x1="140.59" y1="293.239" x2="194.476" y2="293.239" gradientTransform="matrix(1 0 0 -1 0 382.202)">
      <stop offset="0" stop-color="#15CEFF"/>
      <stop offset="1" stop-color="#0056E9"/>
    </linearGradient>
    <path class="st2" d="M170.1 107.8c-10-6-19.8-11.2-29.5-15.3 1.3-1.2 2.6-2.3 3.9-3.5 7-6.3 14.2-12.7 21.4-19l3 1.5c8.3 4.3 16.7 9.2 25.6 14.9-8.3 7.1-16.4 14.3-24.4 21.4z"/>
  </g>
  <linearGradient id="SVGID_4_" gradientUnits="userSpaceOnUse" x1="97.644" y1="143.499" x2="449.11" y2="143.499">
    <stop offset="0" stop-color="#2A85FF"/>
    <stop offset="1" stop-color="#15CEFF"/>
  </linearGradient>
  <path class="st3" d="M305.7 31.2c62 0 112.3 50.3 112.3 112.3s-50.3 112.3-112.3 112.3c-1.5 0-3 0-4.5-.1-22.9-.9-44.1-8.7-61.5-21.3-39.7-24.1-76.9-63.4-111.1-90.9C162.8 116 200 76.7 239.7 52.6c17.4-12.6 38.5-20.4 61.5-21.3 1.5-.1 3-.1 4.5-.1m0-31.1c-1.9 0-3.9 0-5.9.1-27.9 1.1-54.6 10.3-77.3 26.4-28 17.2-53.5 40-78.1 62-12.4 11.1-24.1 21.6-35.2 30.5-7.3 5.9-11.6 14.8-11.6 24.2s4.3 18.3 11.6 24.2c11.2 9 22.9 19.4 35.2 30.5 24.6 22.1 50.1 44.9 78.1 62 22.7 16.2 49.4 25.3 77.3 26.4 2 .1 4 .1 5.9.1 79.1 0 143.4-64.3 143.4-143.4S384.8.1 305.7.1z"/>
  <linearGradient id="SVGID_5_" gradientUnits="userSpaceOnUse" x1="140.59" y1="198.334" x2="194.476" y2="198.334">
    <stop offset="0" stop-color="#15CEFF"/>
    <stop offset="1" stop-color="#0056E9"/>
  </linearGradient>
  <path class="st4" d="M170.1 179.5c-10 6-19.8 11.2-29.5 15.3 1.3 1.2 2.6 2.3 3.9 3.5 7 6.3 14.2 12.7 21.4 19l3-1.5c8.3-4.3 16.7-9.2 25.6-14.9-8.3-7.1-16.4-14.3-24.4-21.4z"/>
  <defs>
    <path id="SVGID_17_" d="M220.5 143.5c-45.1 36.2-87.7 62.1-127.7 62.1-34.3 0-62.1-27.8-62.1-62.1h-31c0 51.3 41.8 93.1 93.1 93.1 24 0 48.9-6.8 76.2-20.9 21.4-11 43.9-26.3 71-48 7.3-5.9 11.6-14.8 11.6-24.2h-31.1z"/>
  </defs>
  <clipPath id="SVGID_6_">
    <use xlink:href="#SVGID_17_" overflow="visible"/>
  </clipPath>
  <g class="st5">
    <linearGradient id="SVGID_7_" gradientUnits="userSpaceOnUse" x1="140.59" y1="198.334" x2="194.476" y2="198.334">
      <stop offset="0" stop-color="#15CEFF"/>
      <stop offset="1" stop-color="#0056E9"/>
    </linearGradient>
    <path class="st6" d="M170.1 179.5c-10 6-19.8 11.2-29.5 15.3 1.3 1.2 2.6 2.3 3.9 3.5 7 6.3 14.2 12.7 21.4 19l3-1.5c8.3-4.3 16.7-9.2 25.6-14.9-8.3-7.1-16.4-14.3-24.4-21.4z"/>
  </g>
  <linearGradient id="SVGID_8_" gradientUnits="userSpaceOnUse" x1="-.349" y1="190.056" x2="251.505" y2="190.056">
    <stop offset="0" stop-color="#15CEFF"/>
    <stop offset="1" stop-color="#0056E9"/>
  </linearGradient>
  <path class="st7" d="M220.5 143.5c-45.1 36.2-87.7 62.1-127.7 62.1-34.3 0-62.1-27.8-62.1-62.1h-31c0 51.3 41.8 93.1 93.1 93.1 24 0 48.9-6.8 76.2-20.9 21.4-11 43.9-26.3 71-48 7.3-5.9 11.6-14.8 11.6-24.2h-31.1z"/>
</svg>