<svg xmlns="http://www.w3.org/2000/svg" width="449.5" height="286.7" overflow="scroll">
  <style>
    .st0{fill:#FFFFFF;}
  </style>
  <path class="st0" d="M306.1 31c62 0 112.3 50.3 112.3 112.3s-50.3 112.3-112.3 112.3c-1.5 0-3 0-4.5-.1-22.9-.9-44.1-8.7-61.5-21.3-39.7-24.1-76.9-63.4-111.1-90.9 34.2-27.5 71.4-66.8 111.1-90.9 17.4-12.6 38.5-20.4 61.5-21.3 1.5 0 3-.1 4.5-.1m0-31c-1.9 0-3.9 0-5.9.1-27.9 1.1-54.6 10.3-77.3 26.4-28 17.2-53.5 40-78.1 62-12.4 11.1-24.1 21.6-35.2 30.5-7.3 6-11.6 15-11.6 24.4s4.3 18.3 11.6 24.2c11.2 9 22.9 19.4 35.2 30.5 24.6 22.1 50.1 44.9 78.1 62 22.7 16.2 49.4 25.3 77.3 26.4 2 .1 4 .1 5.9.1 79.1 0 143.4-64.3 143.4-143.4S385.1 0 306.1 0z"/>
  <path class="st0" d="M240.2 119.2c-27.1-21.7-49.6-36.9-71-48-27.2-14.1-52.1-20.9-76.1-20.9C41.8 50.3 0 92 0 143.4s41.8 93.1 93.1 93.1c24 0 48.9-6.8 76.2-20.9 21.4-11 43.9-26.3 71-48 7.3-5.9 11.6-14.8 11.6-24.2 0-9.4-4.3-18.4-11.7-24.2zM93.1 205.4c-34.3 0-62.1-27.8-62.1-62.1s27.8-62.1 62.1-62.1c40 0 82.6 25.9 127.7 62.1-45.1 36.3-87.7 62.1-127.7 62.1z"/>
</svg>